Coordinates
version=1
nRows=4
nColumns=124
inDegrees=yes

Units are S.I. units (second, meters, Newtons, ...)
If the header above contains a line with 'inDegrees', this indicates whether rotational values are in degrees (yes) or radians (no).

endheader 
time	pelvis_tilt	pelvis_list	pelvis_rotation	pelvis_tx	pelvis_ty	pelvis_tz	hip_flexion_l	hip_adduction_l	hip_rotation_l	hip_flexion_r	hip_adduction_r	hip_rotation_r	knee_angle_l	knee_angle_r	ankle_angle_l	ankle_angle_r	subtalar_angle_l	subtalar_angle_r	mtp_angle_l	mtp_angle_r	lumbar_extension	lumbar_bending	lumbar_rotation	arm_flex_l	arm_add_l	arm_rot_l	arm_flex_r	arm_add_r	arm_rot_r	elbow_flex_l	elbow_flex_r	glut_med1_l/activation	glut_med2_l/activation	glut_med3_l/activation	glut_min1_l/activation	glut_min2_l/activation	glut_min3_l/activation	semimem_l/activation	semiten_l/activation	bifemlh_l/activation	bifemsh_l/activation	sar_l/activation	add_long_l/activation	add_brev_l/activation	add_mag1_l/activation	add_mag2_l/activation	add_mag3_l/activation	tfl_l/activation	pect_l/activation	grac_l/activation	glut_max1_l/activation	glut_max2_l/activation	glut_max3_l/activation	iliacus_l/activation	psoas_l/activation	quad_fem_l/activation	gem_l/activation	peri_l/activation	rect_fem_l/activation	vas_med_l/activation	vas_int_l/activation	vas_lat_l/activation	med_gas_l/activation	lat_gas_l/activation	soleus_l/activation	tib_post_l/activation	flex_dig_l/activation	flex_hal_l/activation	tib_ant_l/activation	per_brev_l/activation	per_long_l/activation	per_tert_l/activation	ext_dig_l/activation	ext_hal_l/activation	ercspn_l/activation	intobl_l/activation	extobl_l/activation	glut_med1_r/activation	glut_med2_r/activation	glut_med3_r/activation	glut_min1_r/activation	glut_min2_r/activation	glut_min3_r/activation	semimem_r/activation	semiten_r/activation	bifemlh_r/activation	bifemsh_r/activation	sar_r/activation	add_long_r/activation	add_brev_r/activation	add_mag1_r/activation	add_mag2_r/activation	add_mag3_r/activation	tfl_r/activation	pect_r/activation	grac_r/activation	glut_max1_r/activation	glut_max2_r/activation	glut_max3_r/activation	iliacus_r/activation	psoas_r/activation	quad_fem_r/activation	gem_r/activation	peri_r/activation	rect_fem_r/activation	vas_med_r/activation	vas_int_r/activation	vas_lat_r/activation	med_gas_r/activation	lat_gas_r/activation	soleus_r/activation	tib_post_r/activation	flex_dig_r/activation	flex_hal_r/activation	tib_ant_r/activation	per_brev_r/activation	per_long_r/activation	per_tert_r/activation	ext_dig_r/activation	ext_hal_r/activation	ercspn_r/activation	intobl_r/activation	extobl_r/activation	
          1.25149168	         -6.13297373	         -1.61970971	         -1.08416846	          0.84812168	          1.01244395	         -0.01407236	         12.14673757	          4.88705186	         14.84397264	          9.06137100	          4.27366289	          0.36831841	        -11.31997544	        -42.91912063	          8.60945887	         14.04034569	        -10.44106984	          3.26446865	          3.28066912	          2.32466698	          2.99258221	         -0.83220198	          8.91209193	        -16.62659740	        -13.46352955	         19.00353400	         -2.84948864	        -13.46346271	         19.34870986	          9.94562353	         66.65645412	          0.63240290	          0.48355951	          0.43671799	          0.42745631	          0.46362527	          0.47220601	          0.06692892	          0.05003395	          0.06037682	          0.05000576	          0.05001576	          0.05000172	          0.05000224	          0.05000710	          0.05001209	          0.05077920	          0.21972913	          0.05000893	          0.05000549	          0.24973206	          0.16367542	          0.05001610	          0.05000170	          0.05000177	          0.05000336	          0.05002996	          0.35747009	          0.11214844	          0.12962395	          0.13702848	          0.11419929	          0.08447530	          0.05001211	          0.08811614	          0.25530353	          0.10519223	          0.09661380	          0.09811763	          0.05000763	          0.05000419	          0.05002274	          0.05001273	          0.05005425	          0.05000068	          0.05000067	          0.05000090	          0.05000186	          0.05000158	          0.05000128	          0.05001389	          0.05000790	          0.05000460	          0.05001478	          0.05000304	          0.05000134	          0.35471678	          0.18140856	          0.19132424	          0.25600812	          0.05205221	          0.05002208	          0.05000175	          0.27898438	          0.20630584	          0.22633873	          0.05000280	          0.05000136	          0.05000130	          0.13992156	          0.15970361	          0.05927348	          0.05002957	          0.05000377	          0.05000987	          0.05000101	          0.05000092	          0.05000070	          0.05000078	          0.05000156	          0.05000019	          0.05000131	          0.05000639	          0.05000468	          0.34365017	          0.15763801	          0.06334677	          0.37962429	          0.45499063	          0.37806206	          0.08725647	          0.12543387	          0.05557617	
          1.26817824	         -6.09356643	         -1.87017627	         -0.78194763	          0.85654719	          1.01331762	         -0.01466946	         11.39707775	          4.61227443	         14.98220890	         10.62925144	          4.51899014	          0.21090209	        -10.92145522	        -42.88951903	          8.64000028	         14.89233699	        -10.34023442	          2.77192727	          3.67866831	          1.82699565	          2.82042692	         -0.68804910	          8.77632034	        -16.45402542	        -13.46350450	         18.98732346	         -2.20700704	        -13.46346139	         19.34866437	         10.18807933	         67.31470446	          0.62964252	          0.48280415	          0.43727107	          0.42533236	          0.46352518	          0.47222103	          0.05989980	          0.05001855	          0.05390216	          0.05000663	          0.05002117	          0.05000170	          0.05000222	          0.05000676	          0.05001144	          0.05001951	          0.24661386	          0.05000883	          0.05000550	          0.24235068	          0.15669744	          0.05001041	          0.05000194	          0.05000202	          0.05000349	          0.05003217	          0.36136715	          0.13138687	          0.11451379	          0.12121762	          0.10139702	          0.10247745	          0.05782766	          0.09076995	          0.25598431	          0.10048436	          0.09259124	          0.08504522	          0.05000793	          0.05000445	          0.05002243	          0.05001233	          0.05004905	          0.05000067	          0.05000066	          0.05000093	          0.05000177	          0.05000154	          0.05000126	          0.05001324	          0.05000775	          0.05000456	          0.05001038	          0.05000229	          0.05000106	          0.37306453	          0.18580972	          0.19707755	          0.26216798	          0.05012140	          0.05001873	          0.05000157	          0.27863393	          0.20329765	          0.21320874	          0.05000243	          0.05000119	          0.05000117	          0.13512336	          0.15395880	          0.06444651	          0.05003178	          0.05000372	          0.05000831	          0.05000114	          0.05000104	          0.05000079	          0.05000071	          0.05000142	          0.05000019	          0.05000131	          0.05000625	          0.05000460	          0.36072016	          0.16692339	          0.07177684	          0.38342821	          0.44619732	          0.37610914	          0.08627241	          0.12665987	          0.05784369	
          1.28486479	         -6.05545346	         -2.10556822	         -0.48273907	          0.86476964	          1.01408973	         -0.01520458	         10.67134179	          4.34526728	         15.10074081	         12.23592668	          4.74225269	          0.08125053	        -10.53438216	        -42.69661852	          8.65223080	         15.63902906	        -10.26116669	          2.26162395	          4.11134775	          1.42277879	          2.64049337	         -0.54977212	          8.60694323	        -16.20053316	        -13.46350129	         19.00695973	         -1.51579578	        -13.46345953	         19.34873642	         10.51256461	         67.75271226	          0.62561109	          0.48202883	          0.43860907	          0.42497803	          0.46205556	          0.47123973	          0.05311529	          0.05001320	          0.05004203	          0.05000771	          0.05003284	          0.05000170	          0.05000224	          0.05000651	          0.05001094	          0.05001387	          0.27136702	          0.05000890	          0.05000554	          0.23430296	          0.14875511	          0.05000755	          0.05000227	          0.05000233	          0.05000356	          0.05003330	          0.36530392	          0.14954382	          0.10024102	          0.10631537	          0.08933314	          0.11983600	          0.07461853	          0.09269501	          0.25637060	          0.09445828	          0.08689222	          0.07394753	          0.05000882	          0.05000505	          0.05002397	          0.05001340	          0.05004870	          0.05000068	          0.05000068	          0.05000097	          0.05000169	          0.05000150	          0.05000123	          0.05001249	          0.05000756	          0.05000452	          0.05000675	          0.05000183	          0.05000087	          0.38198090	          0.19164414	          0.20518468	          0.26912004	          0.05012808	          0.05001571	          0.05000142	          0.27566616	          0.19990687	          0.17238807	          0.05000211	          0.05000105	          0.05000106	          0.13320919	          0.15087847	          0.07143103	          0.05003503	          0.05000371	          0.05000643	          0.05000128	          0.05000118	          0.05000089	          0.05000068	          0.05000136	          0.05000020	          0.05000134	          0.05000630	          0.05000466	          0.37469971	          0.17347543	          0.08031745	          0.38080967	          0.43687841	          0.36891232	          0.08534028	          0.12695925	          0.06023198	
          1.30155135	         -6.01905975	         -2.32456703	         -0.18635184	          0.87283281	          1.01476493	         -0.01567830	          9.96766668	          4.08855906	         15.20137279	         13.85923711	          4.93913527	         -0.02003995	        -10.16073430	        -42.33890078	          8.65074904	         16.24866842	        -10.20258443	          1.75574399	          4.57435583	          1.09709554	          2.45649601	         -0.41947381	          8.40585650	        -15.86938762	        -13.46346391	         19.05663929	         -0.78834932	        -13.46346375	         19.34873998	         10.91129209	         67.96554364	          0.62003783	          0.48016201	          0.43925459	          0.42085907	          0.46021469	          0.46941315	          0.05001289	          0.05000935	          0.05000801	          0.05000870	          0.05004908	          0.05000171	          0.05000225	          0.05000631	          0.05001062	          0.05000929	          0.29553490	          0.05000892	          0.05000560	          0.22476596	          0.13915014	          0.05000615	          0.05000272	          0.05000286	          0.05000377	          0.05003609	          0.36826119	          0.16715675	          0.08713032	          0.09224918	          0.07801948	          0.13682828	          0.09281947	          0.09452254	          0.25694250	          0.08832873	          0.08146235	          0.06445181	          0.05000981	          0.05000556	          0.05002545	          0.05001424	          0.05004804	          0.05000065	          0.05000067	          0.05000098	          0.05000163	          0.05000150	          0.05000125	          0.05001198	          0.05000755	          0.05000459	          0.05000400	          0.05000149	          0.05000072	          0.38078327	          0.19819924	          0.21550005	          0.27394819	          0.05008060	          0.05001297	          0.05000129	          0.27165028	          0.19292688	          0.13489546	          0.05000190	          0.05000096	          0.05000098	          0.13494098	          0.15181849	          0.08227812	          0.05004324	          0.05000379	          0.05000627	          0.05000148	          0.05000136	          0.05000101	          0.05000068	          0.05000137	          0.05000022	          0.05000143	          0.05000660	          0.05000492	          0.38454568	          0.17737409	          0.08860699	          0.36813714	          0.42710857	          0.35522704	          0.08481844	          0.12698323	          0.06119409	
